# xmcd
#
# Track frame offsets: 
#        150
#        24740
#        48396
#        76126
#        122451
#        139545
#        172580
#
# Disc length: 2656 seconds
#
# Revision: 0
# Processed by: cddbd v1.5.2PL0 Copyright (c) Steve Scherf et al.
# Submitted via: ExactAudioCopyFreeDBPlugin 1.0
#
DISCID=470a5e07
DTITLE=Joe Bonamassa - Live From Nowhere in Particular [CD1]
DYEAR=2012
DGENRE=Blues
TTITLE0=BRIDGE TO BETTER DAYS 
TTITLE1=WALK IN MY SHADOWS
TTITLE2=SO MANY ROADS 
TTITLE3=POT-POURRI: INDIA - MOUNTAIN TIME
TTITLE4=ANOTHER KINDA LOVE 
TTITLE5=SLOE GIN 
TTITLE6=ONE OF THESE DAYS
EXTD=
EXTT0=
EXTT1=
EXTT2=
EXTT3=
EXTT4=
EXTT5=
EXTT6=
PLAYORDER=
